<?xml version="1.0" encoding="utf-8"?>
<!-- Generator: Adobe Illustrator 24.1.3, SVG Export Plug-In . SVG Version: 6.00 Build 0)  -->
<svg version="1.1" xmlns="http://www.w3.org/2000/svg" xmlns:xlink="http://www.w3.org/1999/xlink" x="0px" y="0px"
	 viewBox="0 0 50 50" style="enable-background:new 0 0 50 50;" xml:space="preserve">
<style type="text/css">
	.st0{fill:#7E4300;}
	.st1{fill:#E2D7D1;}
</style>
<g id="Layer_1">
</g>
<g id="Layer_2">
	<path class="st0" d="M19.3,43.5c-0.8-1,0.4-1.2,0.4-2.1c0.1-0.9-0.7-1.5,0.2-1.6c0.9-0.2,1.4-0.8,1.3-2.1c0-1.2,0.6-2.5,0.3-3.5
		c-0.3-1.1-1.7-0.7-1.6-2.6c0.1-1.9-1.2-2.6-1.2-3.8c-0.1-1.1-0.6-1.1-0.5-2.5c0.1-1.4,0.1-2.2-0.4-2.6c-0.4-0.5-1-0.4-1-0.9
		c0-0.6,0.2-0.8,0.4-1.6c0.1-0.9-0.2-1.6,0.1-1.9c0.4-0.3,0.9,1.1-0.1-0.8s-2-1.8-2-2.8s0.2-1.9,0-3.6s-1.3-3,0-3.2s1.3-1.2,1.3-1.8
		s-0.1,0.9,0.9-1.8c0.9-2.8,0.7-0.6,2.6-0.6c1.9,0,1.3,0.5,2.6,0.5s1.5,0.4,2.5,0.5c1,0.1,0.9,0.5,1.7,0.9s1.5-0.6,1.8,0.9
		c0.3,1.6,0.1,2.1,1,3c0.9,0.9,1.4-0.2,1.2,1.9s0,3.1,0.1,3.6s0.8,0.8,0.4,2.2s-0.6,1.9,0.1,1.9s1-0.4,0.6,0.5
		c-0.4,0.9-0.3,0.9-1.2,1.9c-0.9,1-1,0.1-0.7,1.7S31,24,31,25.7c0,1.6,0.1,2.6,0,3.2c-0.1,0.6,0.4,0.2,0.4,1.6s-0.4,1-0.9,2.1
		c-0.5,1.1-1.5,0.3-1.5,2.2c0,1.9-0.3,2.2,0.1,3.4c0.4,1.1,0.5,0.5,0.9,2.1c0.4,1.5,1.1,2.1,0.9,3.4c-0.2,1.4,1.7,2-1.4,1.8
		c-3.1-0.2-4,0-6.3-0.4C20.9,44.5,20,44.4,19.3,43.5z"/>
	<path class="st1" d="M20.9,42.8c-0.6-1,0.3-1.1,0.3-2s-0.5-1.4,0.2-1.5s1-0.8,1-1.9s0.4-2.3,0.2-3.3s-1.2-0.7-1.1-2.4
		c0.1-1.7-0.8-2.5-0.9-3.5c0-1.1-0.4-1.1-0.4-2.3c0-1.3,0-2-0.3-2.5c-0.3-0.4-0.7-0.3-0.7-0.9c0-0.6,0.2-0.7,0.3-1.5
		c0.1-0.8-0.2-1.5,0.1-1.8c0.3-0.3,0.6,1,0-0.7c-0.6-1.7-1.4-1.7-1.4-2.6c0-0.9,0.1-1.8,0-3.4s-0.9-2.8,0-3S19,8.2,19,7.7
		s0,0.9,0.6-1.7s0.5-0.6,1.9-0.6s1,0.4,1.9,0.4c0.9,0,1.1,0.4,1.8,0.4c0.7,0.1,0.6,0.4,1.2,0.9s1-0.6,1.3,0.9s0.1,2,0.7,2.8
		c0.6,0.8,1-0.2,0.9,1.8c-0.2,1.9,0,2.9,0,3.4c0.1,0.5,0.5,0.8,0.3,2c-0.3,1.3-0.4,1.8,0.1,1.8s0.7-0.4,0.4,0.5
		c-0.3,0.9-0.2,0.9-0.8,1.8s-0.7,0.1-0.5,1.6s0.5,0.8,0.5,2.3c0,1.5,0.1,2.4,0,3s0.3,0.2,0.3,1.5s-0.3,0.9-0.6,1.9
		c-0.3,1-1.1,0.3-1.1,2s-0.2,2.1,0.1,3.2c0.3,1.1,0.4,0.5,0.6,1.9c0.3,1.4,0.8,1.9,0.6,3.2c-0.1,1.3,1.2,1.9-1,1.7
		c-2.2-0.2-2.8,0-4.5-0.4S21.4,43.6,20.9,42.8z"/>
</g>
</svg>
